<svg width="183" height="67" viewBox="0 0 183 67" fill="none" xmlns="http://www.w3.org/2000/svg">
<path d="M17.0564 54.6249C13.601 54.6249 10.6287 53.8953 8.1396 52.436C5.66514 50.962 3.76171 48.919 2.42931 46.3068C1.11155 43.6946 0.452667 40.6884 0.452667 37.2882C0.452667 33.8442 1.11887 30.8234 2.45127 28.2258C3.79831 25.6136 5.70907 23.5779 8.18353 22.1186C10.658 20.6446 13.601 19.9077 17.0125 19.9077C19.9555 19.9077 22.5325 20.4403 24.7434 21.5056C26.9543 22.5709 28.704 24.0667 29.9925 25.9931C30.4279 26.6441 30.7973 27.3335 31.1007 28.0612C32.1159 30.4966 29.9102 32.7789 27.2717 32.7789C24.9862 32.7789 23.2279 30.9099 21.7399 29.1751C21.6069 29.0202 21.466 28.8715 21.3172 28.7293C20.263 27.6932 18.8793 27.1751 17.1663 27.1751C15.7167 27.1751 14.4502 27.5691 13.3667 28.3572C12.2979 29.1306 11.4633 30.2616 10.863 31.7501C10.2627 33.2386 9.9625 35.0408 9.9625 37.1569C9.9625 39.3021 10.2553 41.1262 10.841 42.6293C11.4413 44.1324 12.2832 45.278 13.3667 46.066C14.4502 46.8541 15.7167 47.2481 17.1663 47.2481C18.2351 47.2481 19.1941 47.0292 20.0434 46.5914C20.9072 46.1536 21.6174 45.5188 22.1737 44.687C23.2245 43.1295 24.6847 41.6443 26.5634 41.6443H27.2573C29.8984 41.6443 32.0922 43.9328 31.087 46.3752C30.7912 47.0941 30.4336 47.7791 30.0144 48.4301C28.7699 50.371 27.0495 51.8887 24.8532 52.9832C22.6569 54.0777 20.058 54.6249 17.0564 54.6249Z" fill="white"/>
<path d="M42.7912 53.9682C40.2076 53.9682 38.1131 51.8738 38.1131 49.2902V25.0235C38.1131 22.4399 40.2076 20.3455 42.7912 20.3455C45.3748 20.3455 47.4692 22.4399 47.4692 25.0235V49.2902C47.4692 51.8738 45.3748 53.9682 42.7912 53.9682ZM42.8132 16.0113C41.4222 16.0113 40.2289 15.5516 39.2332 14.6322C38.2522 13.6983 37.7617 12.5819 37.7617 11.2831C37.7617 9.99889 38.2522 8.8971 39.2332 7.97773C40.2289 7.04377 41.4222 6.57678 42.8132 6.57678C44.2041 6.57678 45.3901 7.04377 46.3711 7.97773C47.3667 8.8971 47.8646 9.99889 47.8646 11.2831C47.8646 12.5819 47.3667 13.6983 46.3711 14.6322C45.3901 15.5516 44.2041 16.0113 42.8132 16.0113Z" fill="white"/>
<path d="M69.4051 20.3455C71.3394 20.3455 72.9075 21.9135 72.9075 23.8479C72.9075 25.7822 71.3394 27.3502 69.4051 27.3502H56.0944C54.1601 27.3502 52.592 25.7822 52.592 23.8479C52.592 21.9135 54.1601 20.3455 56.0944 20.3455H69.4051ZM57.2042 16.9681C57.2042 14.3845 59.2986 12.29 61.8822 12.29C64.4659 12.29 66.5603 14.3845 66.5603 16.9681V43.6362C66.5603 44.4972 66.6921 45.1685 66.9556 45.6501C67.2192 46.1171 67.5852 46.4454 68.0537 46.6352C68.5369 46.8249 69.0933 46.9197 69.7229 46.9197C70.1622 46.9197 70.6014 46.8832 71.0407 46.8103C71.6021 46.6984 72.1457 47.0602 72.2645 47.6202L73.0992 51.5565C73.3391 52.6875 72.6742 53.8037 71.5458 54.0558C70.6966 54.2601 69.6643 54.3842 68.4491 54.4279C66.1942 54.5155 64.2176 54.2163 62.5192 53.5304C60.8354 52.8446 59.5249 51.7793 58.5878 50.3345C57.6508 48.8898 57.1895 47.0657 57.2042 44.8621V16.9681Z" fill="white"/>
<path d="M84.7783 66.5768C83.5923 66.5768 82.4796 66.4819 81.44 66.2922C79.963 66.0399 79.2237 64.5194 79.6581 63.0854L80.1242 61.5464C80.608 59.9494 82.298 59.1445 83.9657 59.1999C84.8588 59.2291 85.6275 59.0248 86.2718 58.587C86.9307 58.1492 87.4651 57.4049 87.8751 56.3542C88.2295 55.4357 88.2456 54.4211 87.9204 53.4919L78.4373 26.3891C77.4038 23.4353 79.5962 20.3455 82.7256 20.3455C84.7585 20.3455 86.544 21.696 87.0973 23.6521L93.0982 44.8679C93.1265 44.9681 93.2179 45.0372 93.322 45.0372C93.4259 45.0372 93.5172 44.9683 93.5457 44.8685L99.6005 23.6622C100.161 21.6991 101.955 20.3455 103.997 20.3455C107.15 20.3455 109.356 23.4613 108.309 26.4352L97.341 57.602C96.7114 59.4115 95.8548 60.9876 94.7713 62.3302C93.7025 63.6873 92.3481 64.7307 90.7082 65.4604C89.0684 66.2047 87.0917 66.5768 84.7783 66.5768Z" fill="white"/>
<g clip-path="url(#clip0_42_3)">
<path d="M173.518 49.6904C175.96 49.6904 177.936 47.6059 177.936 45.0581L177.958 21.8968C177.958 19.349 175.96 17.2645 173.518 17.2645H137.994C135.552 17.2645 133.554 19.349 133.554 21.8968V45.0581C133.554 47.6059 135.552 49.6904 137.994 49.6904H129.113V54.3227H182.398V49.6904H173.518ZM137.994 21.8968H173.518V45.0581H137.994V21.8968Z" fill="white"/>
</g>
<defs>
<clipPath id="clip0_42_3">
<rect width="53.285" height="55.5872" fill="white" transform="translate(129.113)"/>
</clipPath>
</defs>
</svg>
